<?xml version="1.0" encoding="utf-8"?>
<!-- Generator: Adobe Illustrator 16.0.0, SVG Export Plug-In . SVG Version: 6.00 Build 0)  -->
<!DOCTYPE svg PUBLIC "-//W3C//DTD SVG 1.1//EN" "http://www.w3.org/Graphics/SVG/1.1/DTD/svg11.dtd">
<svg version="1.1" id="Layer_1" xmlns="http://www.w3.org/2000/svg" xmlns:xlink="http://www.w3.org/1999/xlink" x="0px" y="0px"
	 width="499.938px" height="318.875px" viewBox="0 0 499.938 318.875" enable-background="new 0 0 499.938 318.875"
	 xml:space="preserve">
<g>
	<g>
		<path fill-rule="evenodd" clip-rule="evenodd" fill="none" d="M1,141.845C1,62.542,1-16.761,1-96.08
			c166.917-0.015,333.833-0.015,500.844-0.015c0,166.844,0,333.718,0,500.75c-166.886,0-333.865,0-500.844,0
			c0-75.873,0-151.844,0-227.814c48.459,18.312,96.919,36.622,145.776,55.085c0-12.45,0-24.189,0-36.213
			c-33.004-12.015-65.921-23.996-99.912-36.37c33.995-12.376,66.914-24.36,99.916-36.374c0-12.028,0-23.768,0-36.216
			C97.917,105.219,49.458,123.532,1,141.845z M209.559,318.742c41.12-106.235,82.19-212.338,123.344-318.662
			c-14.604,0-28.559,0-42.581,0c-41.105,106.204-82.147,212.24-123.338,318.662C181.572,318.742,195.221,318.742,209.559,318.742z
			 M354.162,86.906c0,12.3,0,24.042,0,36.064c33.002,12.015,65.914,23.998,99.907,36.373
			c-34.015,12.383-66.938,24.368-99.892,36.364c0,12.056,0,23.789,0,36.068c48.853-18.314,97.333-36.488,145.522-54.555
			c0-12.301,0-23.921,0-35.769C451.213,123.28,402.859,105.157,354.162,86.906z"/>
		<path fill-rule="evenodd" clip-rule="evenodd" fill="#7A16E0" d="M1,141.845c48.458-18.313,96.917-36.626,145.78-55.093
			c0,12.449,0,24.188,0,36.216c-33.001,12.014-65.92,23.998-99.916,36.374c33.991,12.374,66.908,24.355,99.912,36.37
			c0,12.023,0,23.763,0,36.213C97.919,213.463,49.459,195.152,1,176.841C1,165.175,1,153.511,1,141.845z"/>
		<path fill-rule="evenodd" clip-rule="evenodd" fill="#7A16E0" d="M209.559,318.742c-14.338,0-27.986,0-42.575,0
			C208.174,212.32,249.216,106.284,290.321,0.081c14.022,0,27.978,0,42.581,0C291.749,106.404,250.679,212.507,209.559,318.742z"/>
		<path fill-rule="evenodd" clip-rule="evenodd" fill="#7A16E0" d="M354.162,86.906c48.697,18.251,97.051,36.375,145.538,54.546
			c0,11.848,0,23.468,0,35.769c-48.189,18.066-96.67,36.24-145.522,54.555c0-12.279,0-24.013,0-36.068
			c32.954-11.996,65.877-23.981,99.892-36.364c-33.993-12.375-66.905-24.358-99.907-36.373
			C354.162,110.948,354.162,99.206,354.162,86.906z"/>
	</g>
</g>
</svg>
