<?xml version="1.0" encoding="utf-8"?>
<!-- Generator: Adobe Illustrator 16.0.0, SVG Export Plug-In . SVG Version: 6.00 Build 0)  -->
<!DOCTYPE svg PUBLIC "-//W3C//DTD SVG 1.1//EN" "http://www.w3.org/Graphics/SVG/1.1/DTD/svg11.dtd">
<svg version="1.1" id="Layer_1" xmlns="http://www.w3.org/2000/svg" xmlns:xlink="http://www.w3.org/1999/xlink" x="0px" y="0px"
	 width="53px" height="116.787px" viewBox="0 0 53 116.787" enable-background="new 0 0 53 116.787" xml:space="preserve">
<g>
	<g>
		<path fill-rule="evenodd" clip-rule="evenodd" fill="none" d="M274.938,391.016c-166.979,0-333.958,0-500.938,0
			c0-166.979,0-333.958,0-500.938c166.979,0,333.958,0,500.938,0C274.938,57.057,274.938,224.036,274.938,391.016z M162.259,389.782
			c0.926-1.883,0.579-3.572,0.62-5.198c0.53-21.203-1.071-42.251-4.957-63.098c-6.034-32.359-16.893-62.889-35.062-90.547
			c-13.065-19.89-29.089-36.858-50.014-48.622c-24.197-13.602-49.777-17.154-76.559-9.127c-21.139,6.336-38.43,18.805-53.271,34.812
			c-20.86,22.499-34.531,49.119-44.05,78.04c-8.324,25.29-12.525,51.335-13.742,77.867c-0.393,8.577-0.062,17.187-0.062,25.701
			C-110.331,390.089,156.056,390.207,162.259,389.782z M125.954,59.176C126.179,3.272,80.52-42.721,24.589-42.929
			C-31.825-43.14-77.81,2.292-78.018,58.442c-0.209,56.426,45.165,102.348,101.37,102.597
			C79.958,161.289,125.726,115.851,125.954,59.176z"/>
		<path fill-rule="evenodd" clip-rule="evenodd" fill="#7916E0" d="M162.259,389.782c-6.203,0.425-272.59,0.307-277.095-0.172
			c0-8.515-0.332-17.124,0.062-25.701c1.216-26.532,5.417-52.577,13.742-77.867c9.519-28.921,23.189-55.541,44.05-78.04
			c14.841-16.007,32.133-28.476,53.271-34.812c26.781-8.027,52.361-4.475,76.559,9.127c20.925,11.764,36.948,28.732,50.014,48.622
			c18.169,27.658,29.027,58.188,35.062,90.547c3.886,20.847,5.487,41.895,4.957,63.098
			C162.838,386.21,163.185,387.899,162.259,389.782z"/>
		<path fill-rule="evenodd" clip-rule="evenodd" fill="#7A16E0" d="M125.954,59.176c-0.229,56.675-45.996,102.113-102.602,101.863
			c-56.206-0.249-101.579-46.171-101.37-102.597C-77.81,2.292-31.825-43.14,24.589-42.929
			C80.52-42.721,126.179,3.272,125.954,59.176z M107.954,58.973c-0.031-46.219-37.72-83.888-83.945-83.901
			c-46.237-0.014-83.965,37.622-84.026,83.822c-0.062,46.463,37.719,84.222,84.197,84.149
			C70.368,142.971,107.985,105.221,107.954,58.973z"/>
		<path fill-rule="evenodd" clip-rule="evenodd" fill="none" d="M107.954,58.973c0.031,46.249-37.586,83.998-83.774,84.07
			c-46.478,0.072-84.258-37.686-84.197-84.149c0.061-46.2,37.789-83.836,84.026-83.822C70.234-24.915,107.923,12.754,107.954,58.973
			z M16.97,40.51c0-2.793-0.013-5.112,0.003-7.43c0.017-2.496-0.094-5.005,0.12-7.486c0.563-6.522,3.886-9.331,10.159-8.78
			c4.803,0.422,7.281,3.405,7.644,9.352c0.63,10.333-2.227,19.713-7.847,28.324c-2.726,4.176-5.606,8.259-7.762,12.778
			c-3.609,7.569-4.574,15.435-3.034,23.554c2.856,0.961,5.365,0.516,7.825,0.521c2.597,0.007,5.256,0.41,7.756-0.376
			c0.814-16.429,1.012-16.991,10.722-30.933c0.666-0.955,1.322-1.916,1.973-2.882c6.453-9.601,9.096-20.192,8.378-31.704
			C52.019,11.2,44.682,2.335,31.77,0.381c-4.28-0.647-8.594-0.463-12.892,0.513C10.145,2.877,4.521,8.076,1.754,16.553
			c-2.536,7.773-1.668,15.702-1.702,23.83C5.729,40.868,10.995,40.679,16.97,40.51z M16.246,99.734c0,5.849,0,11.403,0,17.056
			c5.672,0,11.063,0,16.575,0c0-5.805,0-11.344,0-17.056C27.123,99.734,21.728,99.734,16.246,99.734z"/>
		<path fill-rule="evenodd" clip-rule="evenodd" fill="#7A16E0" d="M16.97,40.51c-5.975,0.169-11.241,0.357-16.917-0.127
			c0.033-8.128-0.834-16.057,1.702-23.83C4.521,8.076,10.145,2.877,18.878,0.894c4.298-0.976,8.611-1.161,12.892-0.513
			C44.682,2.335,52.019,11.2,52.906,25.448c0.718,11.512-1.925,22.104-8.378,31.704c-0.65,0.967-1.307,1.927-1.973,2.882
			c-9.71,13.942-9.907,14.504-10.722,30.933c-2.5,0.786-5.159,0.383-7.756,0.376c-2.46-0.006-4.969,0.439-7.825-0.521
			c-1.541-8.119-0.575-15.984,3.034-23.554c2.155-4.52,5.036-8.602,7.762-12.778c5.62-8.61,8.477-17.991,7.847-28.324
			c-0.362-5.947-2.841-8.93-7.644-9.352c-6.273-0.551-9.597,2.258-10.159,8.78c-0.214,2.481-0.104,4.991-0.12,7.486
			C16.957,35.398,16.97,37.717,16.97,40.51z"/>
		<path fill-rule="evenodd" clip-rule="evenodd" fill="#7A17E0" d="M16.246,99.734c5.482,0,10.877,0,16.575,0
			c0,5.711,0,11.25,0,17.056c-5.513,0-10.903,0-16.575,0C16.246,111.137,16.246,105.583,16.246,99.734z"/>
	</g>
</g>
</svg>
