<?xml version="1.0" encoding="utf-8"?>
<!-- Generator: Adobe Illustrator 16.0.0, SVG Export Plug-In . SVG Version: 6.00 Build 0)  -->
<!DOCTYPE svg PUBLIC "-//W3C//DTD SVG 1.1//EN" "http://www.w3.org/Graphics/SVG/1.1/DTD/svg11.dtd">
<svg version="1.1" id="Layer_1" xmlns="http://www.w3.org/2000/svg" xmlns:xlink="http://www.w3.org/1999/xlink" x="0px" y="0px"
	 width="496.422px" height="303.978px" viewBox="51.739 292.003 496.422 303.978"
	 enable-background="new 51.739 292.003 496.422 303.978" xml:space="preserve">
<g>
	<g>
		<path fill="none" d="M50,735.848c0-167.042,0-333.854,0-500.758c166.919,0,333.838,0,500.848,0c0,166.828,0,333.748,0,500.758
			C384.019,735.848,217.1,735.848,50,735.848z M290.967,373.979c-2.399,0-4.204,0-6.007,0c-39.817,0-79.635,0.034-119.452-0.028
			c-7.856-0.013-15.611,0.662-23.346,2.008c-57.917,10.077-99.313,69.17-88.782,126.797c10.182,55.715,55.172,93.199,111.875,93.201
			c89.797,0.003,179.594-0.013,269.392,0.024c7.688,0.004,15.275-0.65,22.849-1.966c58.079-10.082,99.289-68.563,89.122-126.556
			c-9.68-55.213-55.163-93.469-111.154-93.479c-40.316-0.008-80.635,0.007-120.951-0.03c-1.757-0.002-3.639,0.563-5.542-0.737
			c0-21.201,0.002-42.505-0.001-63.81c0-2.999,0.162-6.011-0.068-8.992c-0.377-4.851-4.277-8.399-8.914-8.408
			c-4.63-0.01-8.483,3.542-8.966,8.373c-0.148,1.486-0.051,2.997-0.052,4.496C290.967,327.679,290.967,350.485,290.967,373.979z"/>
		<path fill="#7A17E0" d="M290.967,373.979c0-23.494,0-46.301,0.001-69.107c0-1.499-0.097-3.009,0.052-4.496
			c0.483-4.831,4.336-8.383,8.966-8.373c4.636,0.009,8.537,3.557,8.914,8.408c0.23,2.981,0.068,5.993,0.068,8.992
			c0.003,21.305,0.001,42.609,0.001,63.81c1.903,1.3,3.785,0.735,5.542,0.737c40.316,0.037,80.635,0.022,120.951,0.03
			c55.991,0.011,101.475,38.267,111.154,93.479c10.167,57.991-31.043,116.474-89.122,126.556c-7.572,1.314-15.161,1.97-22.849,1.966
			c-89.798-0.037-179.595-0.021-269.392-0.024c-56.702-0.002-101.693-37.486-111.875-93.201
			c-10.532-57.627,30.865-116.72,88.782-126.797c7.734-1.346,15.489-2.021,23.346-2.008c39.817,0.063,79.634,0.028,119.452,0.028
			C286.764,373.979,288.568,373.979,290.967,373.979z M300.413,391.982c-44.65,0-89.301,0-133.951-0.002
			c-5.165,0-10.295,0.24-15.447,0.836c-51.915,6.011-89.778,57.802-79.471,108.84c9.215,45.625,46.484,76.259,93.028,76.284
			c90.3,0.049,180.601,0.011,270.902,0.023c4.673,0.001,9.302-0.364,13.945-0.896c51.135-5.844,89.051-57.717,79.105-108.306
			c-9.005-45.798-46.449-76.707-93.161-76.771C390.38,391.935,345.396,391.982,300.413,391.982z"/>
		<path fill="none" d="M300.413,391.982c44.983,0,89.967-0.048,134.951,0.013c46.712,0.063,84.157,30.973,93.161,76.771
			c9.944,50.589-27.972,102.462-79.105,108.306c-4.645,0.53-9.272,0.896-13.945,0.896c-90.301-0.014-180.602,0.024-270.901-0.023
			c-46.544-0.025-83.813-30.659-93.028-76.284c-10.308-51.038,27.556-102.829,79.471-108.84c5.152-0.596,10.282-0.836,15.447-0.836
			C211.112,391.982,255.763,391.982,300.413,391.982z M172.984,496.968c7.607,0,14.434-0.05,21.259,0.024
			c2.767,0.03,5.333-0.457,7.468-2.259c3.799-3.21,5.223-7.28,3.695-12.076c-1.521-4.772-4.879-7.545-9.954-7.643
			c-7.419-0.142-14.843-0.036-22.467-0.036c0-4.036,0.005-7.355-0.001-10.675c-0.008-4.331,0.143-8.671-0.079-12.992
			c-0.301-5.845-4.746-10.192-10.192-10.313c-5.645-0.125-10.447,4.301-10.632,10.36c-0.237,7.76-0.058,15.53-0.058,23.609
			c-7.279,0-13.917-0.021-20.553,0.005c-7.69,0.031-12.575,4.425-12.463,11.153c0.109,6.585,4.854,10.799,12.273,10.834
			c6.774,0.032,13.55,0.007,19.94,0.007c0.465,0.676,0.633,0.808,0.634,0.938c0.053,6.661,0.056,13.323,0.142,19.984
			c0.093,7.192,4.391,12.077,10.518,12.063c6.153-0.017,10.387-4.858,10.456-12.114C173.035,511.05,172.984,504.258,172.984,496.968
			z M300.472,430.975c28.318,0,56.636-0.001,84.953,0.002c3.541,0.001,8.084,0.284,8.224-4.264c0.15-4.994-4.525-4.735-8.231-4.735
			c-56.636-0.001-113.271,0.002-169.906-0.003c-3.544,0-8.083-0.271-8.223,4.268c-0.152,4.994,4.526,4.732,8.231,4.732
			C243.836,430.976,272.154,430.975,300.472,430.975z M300.471,450.972c24.329,0,48.658-0.011,72.986,0.013
			c3.319,0.003,6.387-0.752,6.336-4.634c-0.047-3.541-2.942-4.443-6.089-4.377c-0.667,0.015-1.332,0-1.999,0
			c-47.492,0-94.983,0-142.475,0.001c-1,0-2.002-0.03-2.999,0.021c-2.815,0.146-5.076,1.382-5.115,4.357
			c-0.042,3.27,2.342,4.513,5.369,4.605c1.165,0.036,2.333,0.013,3.499,0.013C253.479,450.973,276.976,450.973,300.471,450.972z
			 M450.879,514.783c-0.038-6.984-6.007-13.116-12.883-13.235c-7.156-0.124-13.498,6.089-13.442,13.169
			c0.059,7.427,5.848,13.292,13.154,13.331C445.104,528.088,450.92,522.229,450.879,514.783z M420.789,484.963
			c0.073-7.042-5.785-13.297-12.596-13.448c-7.227-0.16-13.641,5.833-13.749,12.848c-0.117,7.509,5.927,13.645,13.396,13.599
			C414.894,497.916,420.715,492.074,420.789,484.963z M480.938,484.947c0.119-7.211-5.82-13.345-13.06-13.481
			c-6.761-0.129-13.149,6.085-13.236,12.873c-0.093,7.292,5.757,13.479,12.91,13.658
			C474.92,498.182,480.814,492.435,480.938,484.947z M450.873,454.815c0.076-7.067-5.781-13.23-12.742-13.408
			c-7.004-0.18-13.338,5.727-13.557,12.637c-0.232,7.347,5.597,13.659,12.805,13.866
			C444.713,468.122,450.794,462.221,450.873,454.815z M278.449,524.963c-3.485,0-6.972,0.039-10.457-0.012
			c-3.365-0.049-4.906,1.836-4.945,4.908c-0.039,3.025,1.326,5.102,4.736,5.101c6.805-0.001,13.611,0.005,20.416-0.003
			c3.418-0.005,4.75-2.12,4.695-5.137c-0.056-3.078-1.626-4.936-4.984-4.871C284.758,525.01,281.603,524.962,278.449,524.963z
			 M322.628,534.951c3.651,0,7.306,0.077,10.955-0.023c3.155-0.088,4.323-2.23,4.31-5c-0.014-2.776-1.229-4.901-4.381-4.934
			c-6.972-0.068-13.941-0.035-20.914-0.02c-3.146,0.008-4.486,1.98-4.555,4.775c-0.073,3.004,1.198,5.17,4.626,5.2
			C315.988,534.979,319.309,534.958,322.628,534.951z"/>
		<path fill="#7A17E0" d="M172.984,496.968c0,7.29,0.051,14.082-0.014,20.871c-0.069,7.256-4.303,12.1-10.456,12.114
			c-6.127,0.016-10.424-4.869-10.518-12.063c-0.086-6.661-0.088-13.323-0.142-19.984c-0.001-0.132-0.169-0.264-0.634-0.938
			c-6.391,0-13.166,0.025-19.94-0.007c-7.42-0.035-12.165-4.249-12.273-10.834c-0.111-6.729,4.773-11.122,12.463-11.153
			c6.636-0.025,13.273-0.005,20.553-0.005c0-8.079-0.179-15.851,0.058-23.609c0.185-6.061,4.987-10.485,10.632-10.36
			c5.446,0.121,9.892,4.47,10.192,10.314c0.222,4.32,0.071,8.66,0.079,12.991c0.006,3.318,0.001,6.639,0.001,10.676
			c7.624,0,15.048-0.105,22.467,0.035c5.075,0.098,8.434,2.869,9.954,7.643c1.528,4.796,0.104,8.866-3.695,12.076
			c-2.135,1.802-4.701,2.289-7.468,2.259C187.418,496.918,180.591,496.968,172.984,496.968z"/>
		<path fill="#7A16E0" d="M300.472,430.975c-28.318,0-56.636,0.001-84.954,0c-3.706,0-8.384,0.262-8.231-4.732
			c0.139-4.538,4.678-4.268,8.223-4.268c56.636,0.005,113.271,0.002,169.906,0.003c3.706,0,8.383-0.259,8.23,4.735
			c-0.139,4.548-4.682,4.265-8.223,4.264C357.107,430.974,328.79,430.975,300.472,430.975z"/>
		<path fill="#7A16E0" d="M300.471,450.972c-23.496,0.001-46.992,0.001-70.487,0c-1.167,0-2.334,0.023-3.499-0.013
			c-3.026-0.094-5.411-1.337-5.369-4.605c0.039-2.977,2.3-4.212,5.115-4.357c0.997-0.052,1.999-0.021,2.999-0.021
			c47.492-0.001,94.982-0.001,142.475-0.001c0.667,0,1.332,0.015,1.999,0c3.146-0.066,6.042,0.836,6.089,4.377
			c0.051,3.882-3.017,4.637-6.336,4.634C349.129,450.961,324.8,450.972,300.471,450.972z"/>
		<path fill="#8021E2" d="M450.879,514.783c0.041,7.447-5.775,13.305-13.171,13.265c-7.308-0.039-13.097-5.905-13.154-13.331
			c-0.056-7.08,6.286-13.293,13.442-13.169C444.872,501.667,450.841,507.799,450.879,514.783z"/>
		<path fill="#7F20E1" d="M420.789,484.963c-0.074,7.111-5.896,12.953-12.949,12.997c-7.469,0.046-13.513-6.09-13.396-13.599
			c0.108-7.015,6.522-13.009,13.749-12.848C415.004,471.666,420.862,477.921,420.789,484.963z"/>
		<path fill="#7F20E1" d="M480.938,484.947c-0.123,7.486-6.019,13.233-13.386,13.05c-7.153-0.179-13.003-6.366-12.91-13.658
			c0.087-6.788,6.477-13.002,13.236-12.873C475.117,471.604,481.058,477.736,480.938,484.947z"/>
		<path fill="#7F20E1" d="M450.873,454.815c-0.079,7.404-6.16,13.307-13.494,13.095c-7.208-0.207-13.037-6.521-12.805-13.866
			c0.219-6.91,6.553-12.814,13.557-12.637C445.092,441.585,450.949,447.748,450.873,454.815z"/>
		<path fill="#7B18E0" d="M278.449,524.963c3.154-0.001,6.309,0.047,9.461-0.014c3.357-0.063,4.928,1.793,4.984,4.871
			c0.056,3.017-1.277,5.132-4.695,5.137c-6.805,0.008-13.611,0.002-20.416,0.003c-3.411,0.001-4.775-2.074-4.736-5.101
			c0.04-3.072,1.58-4.957,4.945-4.908C271.478,525.002,274.964,524.963,278.449,524.963z"/>
		<path fill="#7B18E0" d="M322.628,534.954c-3.319,0.004-6.64,0.025-9.959-0.003c-3.428-0.03-4.699-2.196-4.626-5.2
			c0.067-2.795,1.407-4.769,4.555-4.775c6.973-0.017,13.942-0.05,20.914,0.02c3.151,0.031,4.367,2.156,4.381,4.934
			c0.015,2.77-1.153,4.912-4.31,5C329.934,535.028,326.279,534.951,322.628,534.954z"/>
	</g>
</g>
</svg>
